<?xml version="1.0" encoding="UTF-8"?>
<svg width="212px" height="82px" viewBox="0 0 212 82" version="1.1" xmlns="http://www.w3.org/2000/svg" xmlns:xlink="http://www.w3.org/1999/xlink">
    <!-- Generator: sketchtool 52.2 (67145) - http://www.bohemiancoding.com/sketch -->
    <title>F14C9D8C-4A42-4341-962C-DEACC70DA8DD@2x</title>
    <desc>Created with sketchtool.</desc>
    <g id="Welcome" stroke="none" stroke-width="1" fill="none" fill-rule="evenodd">
        <g id="main_v3.1" transform="translate(-325.000000, -2009.000000)">
            <g id="analitics" transform="translate(325.000000, 2009.000000)">
                <circle id="Oval" fill="#EEF9F4" cx="132" cy="37" r="10"></circle>
                <circle id="Oval-Copy-3" fill="#EEF9F4" cx="171" cy="41" r="10"></circle>
                <circle id="Oval-Copy-4" fill="#EEF9F4" cx="201" cy="11" r="10"></circle>
                <circle id="Oval-Copy-2" fill="#EEF9F4" cx="96" cy="70" r="10"></circle>
                <path d="M200.721689,0.94706863 C196.880055,0.940765014 193.347799,3.0598307 191.528627,6.46168242 C189.709978,9.86143293 189.90125,13.9929284 192.02562,17.2093486 L177.251187,32.0606691 C174.532098,30.2368227 171.115337,29.8092275 168.034085,30.9092085 C164.951789,32.008139 162.567686,34.5038459 161.59983,37.6446228 L142.180526,35.5927956 C141.789621,31.2842738 138.799302,27.6623207 134.658217,26.4824939 C130.517654,25.3016164 126.081301,26.8060795 123.497042,30.2662396 C120.913829,33.7274505 120.715763,38.4283725 123.001094,42.0955014 L102.370925,61.6030933 C97.934048,58.4118874 91.8128306,59.1210443 88.2157727,63.2446601 C84.6181922,67.3672253 84.716441,73.5589526 88.4425813,77.5649009 C92.1687214,81.5708492 98.3092751,82.0835434 102.642677,78.7531327 C106.975556,75.4227219 108.091308,69.3308019 105.221709,64.6671762 L125.851356,45.1601095 C128.556858,47.0995223 132.024834,47.6137923 135.172455,46.5442787 C138.321122,45.4752904 140.766369,42.9517427 141.746245,39.7605368 L161.166072,41.8123639 C161.579449,46.1471508 164.623596,49.7717304 168.805966,50.9100585 C172.989382,52.0489119 177.436188,50.463027 179.968186,46.928274 C182.502275,43.3940464 182.59164,38.6521508 180.193949,35.0244196 L194.968383,20.173099 C198.690865,22.6577745 203.573519,22.4823239 207.112046,19.7392 C210.649527,16.9960763 212.056368,12.293053 210.611378,8.04283963 C209.16691,3.79315142 205.189922,0.940239746 200.721689,0.94706863 Z M96.3819251,76.4596668 C92.9249241,76.4596668 90.1211735,73.6430009 90.1211735,70.1670817 C90.1211735,66.692213 92.9249241,63.8744965 96.3819251,63.8744965 C99.8389261,63.8744965 102.642677,66.692213 102.642677,70.1670817 C102.642677,73.6430009 99.8389261,76.4596668 96.3819251,76.4596668 Z M131.857602,42.8986871 C128.400078,42.8986871 125.59685,40.0814959 125.59685,36.6055766 C125.59685,33.1307081 128.400078,30.3124661 131.857602,30.3124661 C135.314603,30.3124661 138.117831,33.1307081 138.117831,36.6055766 C138.117831,40.0814959 135.314603,42.8986871 131.857602,42.8986871 Z M171.506242,47.093744 C168.049241,47.093744 165.246535,44.2765527 165.246535,40.8006335 C165.246535,37.3257649 168.049241,34.5085735 171.506242,34.5085735 C174.963765,34.5085735 177.766994,37.3257649 177.766994,40.8006335 C177.766994,44.2765527 174.963765,47.093744 171.506242,47.093744 Z M200.721689,17.7272958 C197.264688,17.7272958 194.46146,14.9106298 194.46146,11.4352359 C194.46146,7.95984195 197.264688,5.14212536 200.721689,5.14212536 C204.179213,5.14212536 206.981918,7.95984195 206.981918,11.4352359 C206.981918,14.9106298 204.179213,17.7272958 200.721689,17.7272958 Z" id="Shape" stroke="#FFFFFF" fill="#18C29C" fill-rule="nonzero"></path>
                <path d="M134.410472,1.23575837 C134.349086,1.21781886 134.297718,1.19088404 134.258194,1.16218219 C134.063461,1.09237233 133.861153,1.05473552 133.693337,1.05008619 C133.627663,1.05484087 133.572399,1.04940191 133.523595,1.0390625 L123.857387,1.0390625 C122.79406,1.0390625 121.928865,1.91644969 121.928865,3.0005298 C121.928865,4.08537896 122.793601,4.96199709 123.857387,4.96199709 L128.904164,4.96199709 L87.4283355,47.001112 L87.0724056,46.6403536 L65.7182972,24.99656 C64.9658457,24.2348794 63.7481578,24.2348794 62.9954492,24.9963316 L37.6426991,50.6930115 L37.2867719,50.3322371 L25.6475963,38.53455 C24.8939354,37.7726225 23.6767678,37.7726225 22.9245232,38.5340937 L1.06782641,60.6872925 C0.513958219,61.2506441 0.347493177,62.0970493 0.647430492,62.8309929 C0.946644917,63.5631679 1.6495661,64.0390625 2.42761106,64.0390625 C2.93815803,64.0390625 3.42786083,63.833415 3.78922111,63.4666631 L24.2849167,42.6923001 L24.6408493,43.0530612 L36.2807551,54.8508717 C37.0343912,55.6132634 38.2513828,55.6132634 39.0037156,54.8512139 L64.3570645,29.153927 L64.7129918,29.5146827 L86.0672131,51.1585905 C86.8202479,51.9213516 88.0365431,51.9213516 88.7899482,51.1587045 L131.642955,7.72436345 L131.642955,12.8470157 C131.642955,13.9322491 132.507461,14.808483 133.571477,14.808483 C134.635115,14.808483 135.5,13.9320172 135.5,12.8470157 L135.500106,3.01084798 C135.49517,2.77169596 135.449708,2.54030744 135.363868,2.32251654 C135.340623,2.2623076 135.311556,2.19886946 135.26998,2.11702082 C135.19748,1.9710341 135.106389,1.83390545 134.987741,1.69562815 C134.83034,1.4985541 134.633716,1.34201429 134.410472,1.23575837 Z M134.220283,1.13091326 C134.217607,1.12838835 134.215025,1.1258697 134.212539,1.12336207 C134.209163,1.12049551 134.209163,1.12049551 134.207485,1.11906162 C134.210964,1.12343876 134.213112,1.12614237 134.220283,1.13091326 Z M133.488011,1.03043618 C133.487479,1.03029146 133.486948,1.03014626 133.486418,1.03000059 C133.482821,1.0290883 133.482821,1.0290883 133.483008,1.02913521 C133.484822,1.02961096 133.486465,1.03004184 133.488011,1.03043618 Z" id="Path" stroke="#FFFFFF" fill="#18C29C"></path>
            </g>
        </g>
    </g>
</svg>