<?xml version="1.0" encoding="UTF-8"?>
<svg width="200px" height="79px" viewBox="0 0 200 79" version="1.1" xmlns="http://www.w3.org/2000/svg" xmlns:xlink="http://www.w3.org/1999/xlink">
    <!-- Generator: sketchtool 52.2 (67145) - http://www.bohemiancoding.com/sketch -->
    <title>9790C0DC-549C-4223-8153-A20578AA6524@2x</title>
    <desc>Created with sketchtool.</desc>
    <g id="Welcome" stroke="none" stroke-width="1" fill="none" fill-rule="evenodd">
        <g id="main_v3.1" transform="translate(-912.000000, -2009.000000)">
            <g id="contct-us" transform="translate(912.000000, 2009.000000)">
                <rect id="Rectangle" stroke="#18C29C" fill="#EEF9F4" x="0.5" y="22.5" width="199" height="56" rx="8"></rect>
                <path d="M101,52.0528846 C93.5576551,52.0528846 87.1971418,49.5216599 81.9182692,44.4591346 C76.6393967,39.3966093 74,33.2740744 74,26.0913462 C74,18.9086179 76.6393967,12.7644486 81.9182692,7.65865385 C87.1971418,2.55285909 93.5576551,0 101,0 C108.442345,0 114.802858,2.55285909 120.081731,7.65865385 C125.360603,12.7644486 128,18.9086179 128,26.0913462 C128,31.1971409 126.57213,35.8701711 123.716346,40.1105769 L123.456731,40.3701923 C123.370192,40.4567312 123.326923,40.5432688 123.326923,40.6298077 C122.980767,41.3221188 122.807692,41.9711508 122.807692,42.5769231 L125.663462,54 L114.759615,49.9759615 C114.41346,49.8028837 113.894234,49.7163462 113.201923,49.7163462 C112.942306,49.7163462 112.46635,49.8028837 111.774038,49.9759615 C111.6875,49.9759615 111.644231,49.9975959 111.644231,50.0408654 C111.644231,50.0841348 111.600962,50.1057692 111.514423,50.1057692 C108.312484,51.4038526 104.807711,52.0528846 101,52.0528846 Z" id="ion-chatbubble---Ionicons" fill="#18C29C"></path>
                <path d="M103.711538,29.7259615 C104.980776,28.4567244 105.615385,26.9327012 105.615385,25.1538462 C105.615385,23.3749911 104.983179,21.8533717 103.71875,20.5889423 C102.454321,19.3245129 100.932701,18.6923077 99.1538462,18.6923077 C97.3749911,18.6923077 95.8533717,19.3245129 94.5889423,20.5889423 C93.3245129,21.8533717 92.6923077,23.3749911 92.6923077,25.1538462 C92.6923077,26.9327012 93.3245129,28.4543206 94.5889423,29.71875 C95.8533717,30.9831794 97.3749911,31.6153846 99.1538462,31.6153846 C100.932701,31.6153846 102.451917,30.9855832 103.711538,29.7259615 Z M113,37.1538462 C113,37.6538487 112.81731,38.0865366 112.451923,38.4519231 C112.086537,38.8173095 111.653849,39 111.153846,39 C110.634613,39 110.201925,38.8173095 109.855769,38.4519231 L104.908654,33.5192308 C103.187491,34.7115444 101.269241,35.3076923 99.1538462,35.3076923 C97.7788393,35.3076923 96.4639486,35.0408681 95.2091346,34.5072115 C93.9543206,33.973555 92.8726007,33.2524084 91.9639423,32.34375 C91.0552839,31.4350916 90.3341373,30.3533717 89.8004808,29.0985577 C89.2668243,27.8437437 89,26.528853 89,25.1538462 C89,23.7788393 89.2668243,22.4639486 89.8004808,21.2091346 C90.3341373,19.9543206 91.0552839,18.8726007 91.9639423,17.9639423 C92.8726007,17.0552839 93.9543206,16.3341373 95.2091346,15.8004808 C96.4639486,15.2668243 97.7788393,15 99.1538462,15 C100.528853,15 101.843744,15.2668243 103.098558,15.8004808 C104.353372,16.3341373 105.435092,17.0552839 106.34375,17.9639423 C107.252408,18.8726007 107.973555,19.9543206 108.507212,21.2091346 C109.040868,22.4639486 109.307692,23.7788393 109.307692,25.1538462 C109.307692,27.2692413 108.711544,29.1874914 107.519231,30.9086538 L112.466346,35.8557692 C112.822117,36.2115402 113,36.6442282 113,37.1538462 Z" id="search---FontAwesome" fill="#EEF9F4"></path>
            </g>
        </g>
    </g>
</svg>