<?xml version="1.0" encoding="UTF-8"?>
<svg width="226px" height="67px" viewBox="0 0 226 67" version="1.1" xmlns="http://www.w3.org/2000/svg" xmlns:xlink="http://www.w3.org/1999/xlink">
    <!-- Generator: sketchtool 52.2 (67145) - http://www.bohemiancoding.com/sketch -->
    <title>2A5FFCEF-869F-4409-94A9-08EB9E6AF7E7@2x</title>
    <desc>Created with sketchtool.</desc>
    <g id="Welcome" stroke="none" stroke-width="1" fill="none" fill-rule="evenodd">
        <g id="main_v3.1" transform="translate(-315.000000, -1638.000000)">
            <g id="seearch" transform="translate(315.000000, 1638.000000)">
                <rect id="Rectangle-15" stroke="#18C29C" fill="#EBFAF4" x="0.5" y="8.5" width="225" height="26" rx="13"></rect>
                <g id="ыуфкср" transform="translate(148.000000, 0.000000)">
                    <polygon id="Fill-7" fill="#18C29C" points="29.893247 36 33 39.106753 25.106753 47 22 43.893247"></polygon>
                    <g id="Group-13" transform="translate(0.000000, 40.000000)" fill="#18C29C">
                        <path d="M3.17745298,26.0031722 L0.687731126,23.5430946 C-0.229196026,22.6371315 -0.229196026,21.1685419 0.687552318,20.2625788 L20.4967907,0.686390277 C21.4135391,-0.219572793 22.8994331,-0.219572793 23.8160026,0.686213572 L26.3057245,3.14611447 C27.2226517,4.05207754 27.2226517,5.52102058 26.3059033,6.42698365 L6.49702252,26.0029955 C5.58027417,26.9087819 4.09420132,26.9087819 3.17745298,26.0031722" id="Fill-11"></path>
                    </g>
                    <path d="M24.8509099,48 L26.3075142,46.5433466 C27.2308586,45.6199709 27.2308586,44.1229749 26.3073341,43.1995993 L23.7996983,40.6922391 C22.8763539,39.7692236 21.3795885,39.7692236 20.4564242,40.6924192 L19,42.1488925 L24.8509099,48 Z" id="Fill-16" fill="#EBFAF4"></path>
                    <path d="M45.499826,3.07140372 C35.3383595,3.07140372 27.0712298,11.3385335 27.0712298,21.5 C27.0712298,31.6614665 35.3383595,39.9285963 45.499826,39.9285963 C55.6612925,39.9285963 63.9285963,31.6614665 63.9285963,21.5 C63.9285963,11.3385335 55.6611186,3.07140372 45.499826,3.07140372 M45.499826,43 C33.6446078,43 24,33.3553922 24,21.5 C24,9.6446078 33.6446078,0 45.499826,0 C57.3552182,0 67,9.6446078 67,21.5 C67,33.3553922 57.3550443,43 45.499826,43" id="Fill-22" fill="#18C29C"></path>
                </g>
            </g>
        </g>
    </g>
</svg>